<?xml version="1.0" encoding="utf-8"?>
<!-- Generator: Adobe Illustrator 23.0.1, SVG Export Plug-In . SVG Version: 6.00 Build 0)  -->
<svg version="1.1" xmlns="http://www.w3.org/2000/svg" xmlns:xlink="http://www.w3.org/1999/xlink" x="0px" y="0px"
	 viewBox="0 0 1414.03 726.6" style="enable-background:new 0 0 1414.03 726.6;" xml:space="preserve">
<style type="text/css">
	.st0{fill:#CCCCCC;}
	.st1{fill:#2B2B2B;}
	.st2{fill:#CE9780;}
	.st3{fill:#E8BAA3;}
	.st4{fill:#32434E;}
	.st5{fill:#63839A;}
	.st6{fill:#243139;}
	.st7{fill:#496272;}
	.st8{fill:#363E41;}
	.st9{fill:#535C63;}
	.st10{fill:#5C1B22;}
	.st11{fill:#522E25;}
	.st12{fill:#3A211B;}
	.st13{fill:#8E4E3E;}
	.st14{fill:none;stroke:#000000;stroke-width:0.9996;stroke-linecap:round;stroke-linejoin:round;stroke-miterlimit:10;}
	.st15{fill:none;stroke:#1E100D;stroke-width:0.9996;stroke-linecap:round;stroke-linejoin:round;stroke-miterlimit:10;}
	.st16{fill:none;stroke:#2F3437;stroke-width:0.9996;stroke-linecap:round;stroke-linejoin:round;stroke-miterlimit:10;}
	.st17{fill:none;stroke:#2C3A43;stroke-width:0.9996;stroke-linecap:round;stroke-linejoin:round;stroke-miterlimit:10;}
	.st18{fill:none;stroke:#354753;stroke-width:0.9996;stroke-linecap:round;stroke-linejoin:round;stroke-miterlimit:10;}
	.st19{fill:none;stroke:#AC7358;stroke-width:0.9996;stroke-linecap:round;stroke-linejoin:round;stroke-miterlimit:10;}
	.st20{fill:#AC795E;}
	.st21{fill:#FFFFFF;}
</style>
<g id="Layer_3">
	<path class="st0" d="M393.02,578.05c-1.6-0.57-3.61-1.11-6.03-1.64c-0.2-0.04-0.49-0.08-0.86-0.12l-44.09-2.79l-1.52-0.53h3.98
		c0.37,0,0.66,0,0.86-0.04c0.21,0,0.37-0.04,0.45-0.08c2.13-1.85,0.94-3.77-3.61-5.74l4.68-0.37c0.33-0.04,0.49-0.04,0.49-0.08
		c0-0.04-0.16-0.12-0.45-0.17l-9.64-1.23c-0.2-0.04-0.49-0.04-0.78-0.08c-14.72-0.7-29.04-0.94-42.9-0.66h-0.04
		c-1.27,0.04-2.58,0.04-3.86,0.08c-0.33,0-0.57,0.04-0.74,0.08c-0.21,0.04-0.25,0.04-0.16,0.08l0.82,0.37l-4.22,0.16
		c-0.29,0.04-0.49,0.04-0.61,0.08c-0.12,0-0.2,0.04-0.16,0.08l0.29,2.67c0,0.04,0.04,0.04,0.16,0.08c0.08,0.04,0.2,0.04,0.41,0.08
		c6.03,0.7,10.21,1.44,12.47,2.3c1.11,0.45,1.72,0.86,1.8,1.27c0.04,0.04,0.04,0.12,0.04,0.16l-50.07,3.65c-0.21,0-0.33,0-0.41,0.04
		c-0.12,0.04-0.12,0.04-0.08,0.08l5.21,5.09l-1.56,0.16c-0.29,0.04-0.41,0.08-0.37,0.12l0.37,0.57c0.04,0.04,0.12,0.04,0.29,0.08
		c0.16,0.04,0.41,0.04,0.7,0.08c0.29,0.04,0.62,0.04,0.9,0.04h1.31l1.31,4.8c0.04,0.04,0.12,0.04,0.25,0.08
		c0.21,0.04,0.41,0.08,0.66,0.08l1.89,0.16l-0.16,1.64l-4.72,0.37c-0.33,0.04-0.49,0.08-0.53,0.12c-0.04,0.04,0.08,0.08,0.37,0.12
		l4.8,0.7l1.19,1.31c0.04,0.04,0.16,0.08,0.37,0.12c0.16,0.04,0.41,0.04,0.7,0.04l7.09,0.45c8.49,1.97,20.05,3.77,34.69,5.37
		c-1.02,0.94,1.64,1.89,8.08,2.79c4.02,0.57,9.27,0.86,15.71,0.9l1.93,3.9l-3.16,0.29c-0.25,0.04-0.37,0.04-0.41,0.08
		c-0.08,0.04-0.04,0.04,0.12,0.08l2.3,0.53c-8.57,2.42-9.64,5.04-3.2,7.88c3.12,1.35,6.19,2.75,9.27,4.14h41.17
		c-5.41-2.21-8.32-4.39-8.69-6.56c-0.29-1.6,0.04-3.2,0.9-4.8h0.04c0.94-1.68,3.24-3.32,6.97-4.92c9.47,3.4,12.51,6.77,9.1,10.01
		c-1.6,1.52,0.98,3.08,7.79,4.67c2.21,0.53,4.31,1.07,6.32,1.6h87.76c-8.9-3.73-18.62-7.01-29.16-9.8
		c-12.92-3.44-23.54-5.17-31.95-5.17c-0.25-0.33-0.53-0.66-0.82-0.94c-0.7-0.66-1.44-1.31-2.26-2.01c-1.35-1.11-3.2-2.25-5.45-3.4
		c-3.16-1.56-7.09-3.12-11.77-4.67l3.69-0.37c0.21,0,0.33,0,0.37-0.04c0.04-0.04,0.04-0.08-0.04-0.12l-1.43-0.45l27.11,3.08
		l-0.86,0.82l-1.19,0.08c-0.25,0-0.41,0-0.49,0.04c-0.12,0.04-0.16,0.04-0.16,0.08l-0.29,0.98l-2.67,0.16
		c-0.2,0.04-0.37,0.04-0.45,0.04c-0.12,0.04-0.16,0.08-0.12,0.12l2.46,1.39c0.04,0.04,0.12,0.04,0.25,0.08
		c0.12,0.04,0.29,0.04,0.49,0.08c7.46,0.7,14.97,0.78,22.47,0.25c0.29-0.04,0.45-0.04,0.53-0.08c1.89-1.64-0.04-3.32-5.78-5.04
		c-3.08-0.94-6.93-1.84-11.61-2.71l1.89-0.12c0.29-0.04,0.45-0.04,0.49-0.08c0.08-0.04,0.04-0.08-0.08-0.12l-7.92-2.05
		c-0.12-0.04-0.33-0.04-0.62-0.08c-0.29-0.04-0.57-0.04-0.9-0.04l-4.92-0.12C413.16,584.49,402.58,581.29,393.02,578.05
		L393.02,578.05z M303.05,586.62l-1.6-1.56c12.43,1.35,18.74,2.83,18.95,4.51c0,0.25-0.16,0.49-0.49,0.78
		c-0.08,0.04-0.04,0.04,0.12,0.08c0.16,0.04,0.41,0.08,0.7,0.12l5.5,0.45c-2.46,1.85-1.93,3.73,1.56,5.74l-5.04-0.29
		c-8.74-1.44-14.72-2.95-18-4.55l4.59-0.33c0.29,0,0.45-0.04,0.53-0.08c0.04-0.04,0-0.04-0.16-0.08l-2.95-0.74l1.56-1.07
		c0.08-0.04,0.04-0.08-0.12-0.12c-0.16-0.04-0.41-0.04-0.7-0.08l-5.29-0.45l-2.54-1.64l3.24-0.62
		C303.01,586.66,303.09,586.66,303.05,586.62L303.05,586.62z M379.41,595.97c0.41,0.04,0.98,0.04,1.68,0.08
		c-0.37,0.04-0.62,0.04-0.74,0.08l-1.39-0.08L379.41,595.97L379.41,595.97z"/>
	<path class="st0" d="M485.99,617.91h-87.76c6.48,1.72,11.69,3.49,15.58,5.29c0.66,0.29,1.44,0.57,2.3,0.86
		c1.76,0.57,3.53,1.15,5.33,1.72c0.12,0.04,0.33,0.08,0.7,0.12c0.04,0,0.12,0,0.21,0.04c2.83,1.52,6.03,3.03,9.51,4.55
		c17.84,7.63,35.92,11.44,54.26,11.44c6.93,0,12.14-1.15,15.58-3.45c2.99-1.97,4.47-4.63,4.47-8c0-0.66-0.37-1.39-1.11-2.17
		c4.1-0.12,7.96-0.25,11.56-0.45c0.29-0.04,0.45-0.04,0.57-0.08c0.08-0.04,0.04-0.08-0.08-0.12c-3.08-0.86-8.24-1.56-15.5-2.05
		c-2.58-1.68-6.19-3.57-10.87-5.66C489.19,619.27,487.59,618.57,485.99,617.91L485.99,617.91z"/>
	<path class="st0" d="M375.8,617.91h-41.17c3.65,1.6,7.22,3.24,10.79,4.88c1.44,0.62,2.75,1.27,3.94,1.93
		c-1.27,4.22-1.93,9.6-1.93,16.2c0,0.12,0.16,1.76,0.45,5c0.53,3.81,1.39,7.3,2.5,10.46c3.61,10.01,9.51,15.01,17.72,15.01
		c2.87,0,5.29-0.98,7.26-2.99c1.76-1.8,2.67-3.81,2.67-6.07c0-0.53-0.7-1.97-2.05-4.39c-1.39-2.42-2.09-3.94-2.09-4.55
		c0-0.86,0.45-1.93,1.39-3.16c1.27-1.52,2.3-2.75,3.08-3.61c2.95-3.53,4.43-7.01,4.43-10.46c0-1.52-0.29-3.12-0.9-4.71
		c2.75-0.04,5.45-0.08,8.04-0.17h0.04c0.49-0.04,0.98-0.04,1.48-0.08c1.03-0.04,2.01-0.08,2.99-0.12h0.04
		c0.49-0.04,0.94-0.08,1.39-0.12l-0.04,0.04c0.45-0.04,0.82-0.08,1.19-0.12h-0.08c0.21-0.04,0.41-0.08,0.62-0.12l0.2-0.04
		l-1.72-4.06l6.27-0.29c0.33-0.04,0.53-0.08,0.66-0.12c0.04-0.04-0.04-0.08-0.25-0.12l-6.77-1.27l0.04-0.98
		c0-0.04-0.04-0.04-0.16-0.08c-0.12-0.04-0.29-0.04-0.45-0.04l-8.61-0.94l1.97-0.74c0.08-0.04,0.04-0.08-0.08-0.12
		C383.43,620.58,379.12,619.27,375.8,617.91L375.8,617.91z"/>
</g>
<g id="Layer_1">
	<g>
		<path class="st1" d="M473.55,57.03c-2.26-1.27-4.59-2.38-6.93-3.32c-12.14-2.13-22.84-1.85-32.07,0.82l1.27,5.25l-7.79,1.76
			l-4.14,13.12l4.1,4.18l3.4,13.9l1.97-0.2V81.71l-2.3-3.49l0.94-7.18l11.2-8.94l11.48,6.64l6.32-1.6l5.7-3.16l-4.96,8.65
			c4.47-1.07,8.61-2.54,12.47-4.43l2.99-2.01l-2.3,5.91c1.93-1.03,3.81-2.17,5.58-3.49c-0.04-2.79-1.07-5.45-3.16-8
			C476.3,59.4,475.07,58.21,473.55,57.03L473.55,57.03z"/>
		<path d="M477.2,66.21l-2.99,2.01l-4.55,6.03c1.56-0.53,3.08-1.11,4.55-1.8c0.21-0.12,0.45-0.21,0.7-0.33L477.2,66.21L477.2,66.21z
			"/>
		<path class="st2" d="M474.99,75.97l-0.78-3.53c-1.48,0.7-2.99,1.27-4.55,1.8l4.55-6.03c-3.86,1.89-8,3.36-12.47,4.43
			c-0.66,0.12-1.31,0.29-1.97,0.41c-1.31,0.25-2.63,0.45-3.98,0.66l5.21-6.56l-6.32,1.6l-2.83,0.7l-6.85-3.94L435,70.97l-3.94,7.26
			l2.3,3.49v10.83l2.38-10.62l-1.6-3.98l18.04-2.71l-4.72,3.24l18.29-3.98l-3.69,2.34l12.71-0.37
			C474.82,76.3,474.91,76.14,474.99,75.97L474.99,75.97z"/>
		<polygon points="451.86,69.45 454.69,68.75 443.2,62.11 432.01,71.05 431.07,78.23 435,70.97 445.01,65.51 451.86,69.45 		"/>
		<path d="M459.77,73.06c0.66-0.12,1.31-0.29,1.97-0.41L466.7,64l-5.7,3.16l-5.21,6.56C457.15,73.51,458.46,73.31,459.77,73.06
			L459.77,73.06z"/>
		<path class="st3" d="M474.78,76.46l-12.71,0.37l3.69-2.34l-18.29,3.98l4.72-3.24l-18.04,2.71l1.6,3.98l-2.38,10.62l-1.97,0.2
			l-1.93,0.21c-1.89-7.75-3.61-11.73-5.17-11.85c-0.82-0.08-1.6,0.78-2.3,2.62c-0.33,1.64-0.49,3.16-0.45,4.59l1.76-1.8
			c2.38,0.53,3.36,1.97,2.95,4.31c-0.62,2.01,0.33,3.44,2.79,4.39l1.31,28.71c7.88,8.65,16.9,15.01,27.07,19.07l2.34-5.86v-3.44
			v-7.5h-5.99c-6.89-3.32-13.78-7.96-20.71-13.86V98.4l4.67,12.51c4.47,4.55,9.8,8.37,16.04,11.36l12.51,1.89
			c5.86-15.13,8.24-25.88,7.22-32.27C472.24,86.88,472.69,81.75,474.78,76.46L474.78,76.46z"/>
		<path class="st4" d="M460.31,133.67h-0.53v3.44l-2.34,5.86l-2.58,6.44c-10.58-4.51-19.81-11.2-27.68-20.05l-5.09,3.4
			c8.16,11.36,19.44,19.03,33.83,23.05c4.1-5.33,6.89-11.57,8.37-18.7C462.93,136.01,461.62,134.86,460.31,133.67L460.31,133.67z"/>
		<path class="st2" d="M453.79,126.17h5.99h5.74c0.29-0.7,0.53-1.35,0.78-2.01l-12.51-1.89c-6.23-2.99-11.57-6.81-16.04-11.36
			l-4.67-12.51v13.9C440.01,118.21,446.9,122.85,453.79,126.17L453.79,126.17z"/>
		<path class="st5" d="M464.28,137.12c-1.48,7.14-4.27,13.37-8.37,18.7c-14.39-4.02-25.67-11.69-33.83-23.05l-44.33,29.77
			c-0.33,11.03-5.21,23.29-14.6,36.74l8.74-7.46l-9.64,12.79l-1.68,5.08c7.38,0.41,14.6-0.82,21.61-3.65
			c0.12-0.08,0.29-0.16,0.45-0.21c-0.16,0.04-0.33,0.12-0.45,0.21l-13.86,12.75l-9.27,57.99c7.26,2.91,16.49,3.73,27.6,2.42
			l0.29-2.38l1.39-12.26c-6.52-0.12-13.62,1.56-21.24,4.96l-0.41,0.12l0.41-0.12c4.55-3.44,9.51-6.03,14.93-7.71
			c1.23-0.41,2.5-0.74,3.77-1.03c0.74-0.21,1.48-0.37,2.26-0.49c0.29-0.12,0.53-0.29,0.82-0.41c1.27-0.66,2.26-1.31,2.95-1.97
			c0.7-0.62,1.11-1.27,1.27-1.93c0.29-1.15-0.25-2.3-1.6-3.44c-8.49,0.61-16.04-1.44-22.64-6.23c8.2,2.67,16.04,3.57,23.46,2.63
			l2.83-12.96l5.09-22.97l5.04-22.92l3.08,25.39c29.32,8.08,57.99,7.63,86.04-1.44c4.63-15.17,6.19-30.35,4.63-45.48
			c2.67,7.63,3.73,15.83,3.28,24.61l-5.66,48.35c3.53,3.4,7.05,5.66,10.54,6.77l-16.49-1.52l3.94,11.73
			c6.07-1.64,10.5-3.28,13.25-4.92l-12.1,8.74l2.95,9.51l14.52-2.87l-0.41-2.09l-0.25-1.31l-2.75-13.41
			c-0.12,0.12-0.29,0.25-0.41,0.37c0.12-0.12,0.29-0.25,0.41-0.37c1.93-1.76,1.93-3.57-0.04-5.33c-4.67-15.91-6.56-32.07-5.66-48.47
			c0-0.37,0-0.78,0.04-1.15c2.3-13.41,0.57-25.8-5.17-37.24C486.67,153.85,475.11,146.22,464.28,137.12L464.28,137.12z"/>
		<path class="st2" d="M454.85,149.42l2.58-6.44c-10.17-4.06-19.19-10.42-27.07-19.07l-1.31-28.71c-2.46-0.94-3.4-2.38-2.79-4.39
			c0.41-2.34-0.57-3.77-2.95-4.31l-1.76,1.8c0,0.61,0.04,1.19,0.12,1.72c0.29,2.17,1.03,4.02,2.3,5.5c1.02,1.19,2.34,2.13,4.02,2.87
			l-1.23,7.22l-2.5,14.56l-0.82,4.68c1.19,1.56,2.46,3.08,3.73,4.51C435.04,138.23,444.27,144.91,454.85,149.42L454.85,149.42z"/>
		<path d="M435.82,59.77l-1.27-5.25c9.23-2.67,19.93-2.95,32.07-0.82c-11.65-4.68-24.11-5.29-37.44-1.89v4.55l-5.7,1.97l-2.71,10.83
			l-2.79,14.15l2.91,5.33l0.66-0.33c-0.04-1.44,0.12-2.95,0.45-4.59c0.7-1.85,1.48-2.71,2.3-2.63c1.56,0.12,3.28,4.1,5.17,11.85
			l1.93-0.21l-3.4-13.9l-4.1-4.18l4.14-13.12L435.82,59.77L435.82,59.77z"/>
		<path d="M427.99,98.4c-1.68-0.74-2.99-1.68-4.02-2.87l2.79,10.09L427.99,98.4L427.99,98.4z"/>
		<path d="M424.26,120.18l-3.85,0.53c0.98,1.44,2.01,2.79,3.03,4.14L424.26,120.18L424.26,120.18z"/>
		<path class="st6" d="M422.08,132.77l5.09-3.4c-1.27-1.44-2.54-2.95-3.73-4.51c-1.02-1.35-2.05-2.71-3.03-4.14l-4.06,2.5
			c0.9,1.85,1.89,3.65,2.95,5.37C420.16,130.02,421.1,131.42,422.08,132.77L422.08,132.77z"/>
		<path class="st7" d="M419.3,128.59c-1.07-1.72-2.05-3.53-2.95-5.37l-50.57,30.88l-5.9,47.98l3.28-2.79
			c9.39-13.45,14.27-25.71,14.6-36.74l44.33-29.77C421.1,131.42,420.16,130.02,419.3,128.59L419.3,128.59z"/>
		<path class="st7" d="M408.35,215.49l-3.08-25.39l-5.04,22.92C402.93,213.93,405.64,214.75,408.35,215.49L408.35,215.49z"/>
		<path class="st6" d="M408.35,215.49c-2.71-0.74-5.41-1.56-8.12-2.46l-5.09,22.97l2.5,6.48c5.78,5.87,9.47,12.18,11.11,18.95
			c4.39,0.94,8.82,1.76,13.21,2.38l-10.62-26.74L408.35,215.49L408.35,215.49z"/>
		<path class="st7" d="M391.49,252.56l0.82-3.61c-7.42,0.94-15.26,0.04-23.46-2.63C375.46,251.13,383,253.18,391.49,252.56
			L391.49,252.56z"/>
		<path class="st7" d="M385.79,260.8c-1.27,0.29-2.54,0.62-3.77,1.03c-5.41,1.68-10.38,4.26-14.93,7.71
			c7.63-3.4,14.72-5.08,21.24-4.96l0.49-4.18l-0.78-0.08C387.27,260.44,386.53,260.6,385.79,260.8L385.79,260.8z"/>
		<path class="st4" d="M421.96,263.8c0.08,0,0.16,0,0.25,0.04c21.37,3.04,42.77,2.13,64.14-2.67c0.29-11.07,1.31-22.27,3.04-33.63
			c1.93-4.51,3.61-9.02,5-13.49c-28.05,9.06-56.72,9.51-86.04,1.44l2.99,21.57L421.96,263.8L421.96,263.8z"/>
		<path class="st7" d="M422.21,263.84c-0.08-0.04-0.16-0.04-0.25-0.04c-4.39-0.61-8.82-1.43-13.21-2.38
			c2.13,8.78,0.78,18.33-4.1,28.63l5.58,4.43l17.06,13.53c5.95,3.86,12.14,6.11,18.54,6.81c11.65,1.23,24.03-2.79,37.16-12.06
			c1.72-1.23,3.44-2.54,5.21-3.94c-28.34,18.17-52.12,16.36-71.32-5.37L422.21,263.84L422.21,263.84z"/>
		<path class="st7" d="M359.87,202.08l-2.42,2.01l-0.86,5.21c1.03,0.12,2.05,0.25,3.08,0.33c0.29,0.04,0.62,0.04,0.9,0.08l1.68-5.08
			l9.64-12.79l-8.74,7.46L359.87,202.08L359.87,202.08z"/>
		<path class="st7" d="M359.67,209.62l-0.08,0.7l-7.75,42.45c-2.26,1.68-2.26,3.32,0,4.96l0.74,0.16l0.12-0.62l-0.12,0.62
			l-4.1,17.06L347,281.1c5.95,2.75,11.61,4.55,16.98,5.5l22.39-4.96l0.29-2.42c-11.11,1.31-20.34,0.49-27.6-2.42l9.27-57.99
			l13.86-12.75c-7.01,2.83-14.23,4.06-21.61,3.65C360.28,209.66,359.95,209.66,359.67,209.62L359.67,209.62z"/>
		<path class="st4" d="M363.97,286.6c1.07,0.16,2.13,0.29,3.16,0.41C366.11,286.89,365.04,286.76,363.97,286.6
			c-5.37-0.94-11.03-2.75-16.98-5.5c-0.82-0.37-1.64-0.78-2.46-1.19l10.33,11.81l2.95,2.87l0.33,0.33
			c6.81,2.3,13.41,2.75,19.77,1.35l-13.29,3.94l-14.68-4.06l16.69,9.02l22.51-6.93l-1.35-6.44l-1.27,3.2l1.27-3.2l4.1-10.38
			l-4.96-4.59l-0.29,2.38l-0.29,2.42l1.89-0.41l-1.89,0.41L363.97,286.6L363.97,286.6z"/>
		<path class="st6" d="M366.64,305.18l-16.69-9.02l14.68,4.06l13.29-3.94c-6.36,1.39-12.96,0.94-19.77-1.35l-0.33-0.33l-2.95-2.87
			l-10.33-11.81c0.82,0.41,1.64,0.82,2.46,1.19l1.48-6.15l-6.11,3.65l3.44,7.05l1.52,3.08l-1.52-3.08l-1.72,12.8
			c2.17,1.72,4.39,3.2,6.64,4.47c4.47,2.58,9.1,4.22,13.82,5c6.36-0.62,12.55-2.42,18.66-5.41c2.05-1.03,4.1-2.17,6.11-3.45
			l-0.16-0.82L366.64,305.18L366.64,305.18z"/>
		<path class="st2" d="M364.55,307.92c-4.72-0.78-9.35-2.42-13.82-5c3.16,16.61,11.03,33.42,23.54,50.44
			c-2.09,8.61-2.54,17.1-1.31,25.42c1.23,3.45,4.1,4.88,8.61,4.31c2.26,2.46,5.13,3.53,8.61,3.2c0.2,0.12,0.45,0.21,0.7,0.29
			c3.94,1.39,8.65,1.31,14.15-0.29c-0.82-1.27-1.97-2.3-3.44-3.08l-2.99,1.27c-4.22,0.45-8.61-1.84-13.08-6.89
			c-2.58-1.31-3.81-3.03-3.69-5.17c0-0.16,0-0.33,0.04-0.49l1.8-20.34c-7.5-12.18-13.82-24.73-18.91-37.65
			c6.6-1.11,12.75-3.94,18.45-8.45c-0.04-0.98-0.04-1.97,0-2.99C377.1,305.5,370.9,307.31,364.55,307.92L364.55,307.92z"/>
		<path class="st8" d="M445.99,319.78l-0.16-4.96c-6.4-0.7-12.59-2.95-18.54-6.81l-17.06-13.53l-10.33,31.5
			c1.31,8.74,1.03,17.06-0.86,24.98c4.06,1.56,8.61,2.3,13.57,2.21l7.96,23.05l-3.94-24.97l-7.38-3.08v-22.47l9.55-15.01
			L445.99,319.78L445.99,319.78z"/>
		<path class="st8" d="M445.83,314.81l0.16,4.96l0.74,20.18l3.73,1.68h0.62l-0.53-21.57l7.01-1.44l0.33-3.53l-0.33,3.53l-2.21,21.57
			l15.87-6.36l-12.75,3.24l3.9-14.11l20.83-12.88c-0.12-2.42-0.16-4.88-0.21-7.34C469.86,312.03,457.48,316.04,445.83,314.81
			L445.83,314.81z"/>
		<path class="st8" d="M445.09,341.64h-9.96l13.94,7.09c0.33-1.11,0.66-2.17,0.98-3.28c0.37-1.19,0.7-2.34,1.03-3.53l-0.62-0.29
			H445.09L445.09,341.64z"/>
		<path class="st9" d="M435.13,341.64h9.96l-11.56-7.59l13.2,5.91l-0.74-20.18l-27.19-9.1l-9.55,15.01v22.47l7.38,3.08l3.94,24.97
			l-2.01,1.44l-3.2,2.21l0.25,0.86c0.37,2.79,0.12,5.13-0.74,6.97c-0.21,0.37-0.41,0.74-0.62,1.07c-1.27,1.11-2.46,1.84-3.57,2.13
			l-7.26,3.77l-9.47,31.78l-4.06,2.91l1.93,4.06c-18.62,36.29-25.39,71.77-20.34,106.38l-1.56,62.54
			c10.13-7.63,19.85-7.67,29.08-0.08c-13.16-2.58-22.19-0.62-27.15,5.91c13.98,1.31,25.3,5.95,34.04,13.94l1.52-0.9l-4.18-12.3
			l2.26-9.47l-7.18-9.64l4.02-7.71l-3.2-15.05c-0.04-0.12-0.04-0.21-0.04-0.29c-3.65-29.28-2.21-59.71,4.31-91.25l-11.24,5.25
			c5.33-4.06,9.6-8.12,12.75-12.22c5.78-7.55,8-15.17,6.56-22.84l8.04-22.8c5.78-11.81,11.07-23.66,15.87-35.55
			c5.17-12.83,9.72-25.67,13.7-38.59L435.13,341.64L435.13,341.64z"/>
		<polygon class="st8" points="433.53,334.05 445.09,341.64 450.46,341.64 446.73,339.95 433.53,334.05 		"/>
		<path class="st3" d="M383.21,305.5c-5.7,4.51-11.85,7.34-18.45,8.45c5.09,12.92,11.4,25.47,18.91,37.65l-1.8,20.34
			c-0.04,0.16-0.04,0.33-0.04,0.49c-0.12,2.13,1.11,3.85,3.69,5.17c4.47,5.04,8.86,7.34,13.08,6.89l2.99-1.27
			c-0.53-0.29-1.07-0.57-1.68-0.78l-1.6-4.88c4.39,1.56,7.63,3.94,9.72,7.18c0.04,0.21,0.08,0.41,0.16,0.62
			c0.7,1.97,2.95,2.75,6.69,2.34c0.86-1.84,1.11-4.18,0.74-6.97l-0.25-0.86l-3.57-12.71l6.77,10.5l2.01-1.44l-7.96-23.05
			c-4.96,0.08-9.51-0.66-13.57-2.21c-2.62-1.03-5.08-2.34-7.34-4.02C386.24,334.29,383.41,320.47,383.21,305.5L383.21,305.5z"/>
		<path class="st5" d="M422.21,263.84l-5.33,29.61c19.19,21.74,42.98,23.54,71.32,5.37c-0.29-2.25-0.53-4.51-0.74-6.77
			c-0.7-6.73-1.07-13.49-1.15-20.34c-0.04-3.49-0.04-7.01,0.04-10.54C464.98,265.97,443.57,266.87,422.21,263.84L422.21,263.84z"/>
		<path class="st7" d="M496.64,241.53c-1.07-1.03-2.13-2.17-3.2-3.44C494.51,239.36,495.58,240.5,496.64,241.53l5.66-48.35
			c0.45-8.78-0.62-16.98-3.28-24.61c1.56,15.13,0,30.31-4.63,45.48c-1.39,4.47-3.08,8.98-5,13.49c-1.72,11.36-2.75,22.56-3.04,33.63
			c-0.08,3.53-0.08,7.05-0.04,10.54c1.52,0.62,3.04,1.11,4.55,1.56c4.47,1.27,9.1,1.85,13.82,1.8l8.65-5.74l-0.08-0.37l-14.52,2.87
			l-2.95-9.51l12.1-8.74c-2.75,1.64-7.18,3.28-13.25,4.92l-3.94-11.73l16.49,1.52C503.69,247.19,500.17,244.93,496.64,241.53
			L496.64,241.53z"/>
		<polygon class="st7" points="513.25,268.96 513.45,269.29 515.83,267.69 512.84,266.87 513.25,268.96 		"/>
		<polygon class="st10" points="513.45,269.29 513.25,268.96 513.33,269.33 513.45,269.29 		"/>
		<path class="st4" d="M513.45,269.29l-0.12,0.04l-8.65,5.74c1.31-0.04,2.63-0.08,3.98-0.21c-1.35,0.12-2.66,0.16-3.98,0.21
			c-4.72,0.04-9.35-0.53-13.82-1.8l5.17,14.6c7.75,0.12,16.12-1.07,25.1-3.49l-2.83-6.89V267l-5.7-1.44l0.25,1.31l2.99,0.82
			L513.45,269.29L513.45,269.29z"/>
		<path class="st6" d="M490.86,273.27c-1.52-0.45-3.04-0.94-4.55-1.56c0.08,6.85,0.45,13.62,1.15,20.34
			c1.15,0.41,2.34,0.78,3.53,1.11c3.94,1.03,7.96,1.44,12.1,1.27c5.13-1.6,10.21-3.81,15.34-6.56c1.11-0.62,2.26-1.23,3.36-1.89
			l-0.66-1.6c-8.98,2.42-17.35,3.61-25.1,3.49L490.86,273.27L490.86,273.27z"/>
		<path class="st2" d="M503.08,294.43c-4.14,0.16-8.16-0.25-12.1-1.27l20.75,29.32c-2.01,2.5-3.08,5.58-3.2,9.31
			c-0.04,2.5,0.33,5.29,1.11,8.37v7.75v4.55c0.12,2.01,0.74,2.91,1.85,2.62l1.93-15.71c-0.57-6.36,0.7-12.59,3.81-18.66
			l-11.61-23.46l13.53-7.09c-0.25-0.78-0.49-1.52-0.74-2.3C513.29,290.62,508.21,292.83,503.08,294.43L503.08,294.43z"/>
		<polygon class="st9" points="457.56,318.63 450.55,320.06 451.08,341.64 451.78,341.64 455.34,340.2 457.56,318.63 		"/>
		<path class="st8" d="M451.08,341.92c-0.33,1.19-0.66,2.34-1.03,3.53c-0.33,1.11-0.66,2.17-0.98,3.28
			c-3.98,12.92-8.53,25.75-13.7,38.59c1.64,17.02,1.89,34,0.78,51.02c-4.14,4.31-4.43,7.42-0.9,9.39c0.94,0.53,2.13,0.94,3.57,1.31
			c-1.44-0.37-2.62-0.78-3.57-1.31l-13.12,28.79c-7.18,15.95-7.18,32.64,0,49.99c6.11,25.79,7.46,52.74,4.06,80.83l3.85,10.17
			c0.78-0.45,1.52-0.86,2.3-1.31c12.88-7.3,26.45-12.22,40.68-14.8c1.03-0.21,2.09-0.37,3.12-0.53l-0.21-0.74l-40.11-1.84
			l4.84-12.02l-6.97-59.67c-7.92-24.65-4.31-49.79,10.74-75.46l3.4-3.81l-4.1-5l3.49-2.75l1.97-31.74l10.99-65.74l6.85-2.25
			l-15.21,2.01L451.08,341.92L451.08,341.92z"/>
		<path class="st9" d="M451.78,341.64l0.04,0.2l15.21-2.01l-6.85,2.25l-10.99,65.74l-1.97,31.74l-3.49,2.75l4.1,5l-3.4,3.81
			c-15.05,25.67-18.66,50.81-10.74,75.46l6.97,59.67l-4.84,12.02l40.11,1.84l-6.07-20.26l-21.78,4.67
			c7.26-5.58,13.98-8.94,20.18-10.05c1.44-0.29,2.83-0.41,4.18-0.45c-5.33-10.46-8.73-23.05-10.21-37.73
			c-0.04-0.29-0.08-0.58-0.08-0.86l1.89-72.79l-6.85,2.34l7.01-8.74l2.83-3.53c4.14-22.02,10.25-44.05,18.41-66.07
			c0.04-0.33,0.12-0.62,0.16-0.9c2.21-11.93,2.75-24.57,1.56-37.89c-2.17-12.02-3.49-24.61-3.98-37.77l-20.83,12.88l-3.9,14.11
			l12.75-3.24l-15.87,6.36L451.78,341.64L451.78,341.64z"/>
		<path class="st2" d="M505.75,345.24c-0.49-0.94-1.03-1.6-1.56-1.97c-1.44-1.11-2.95-0.45-4.55,2.01v12.43l2.42,1.64
			c-0.41-1.27-0.53-3.08-0.33-5.5c0.08-4.72,0.94-7.46,2.63-8.24C504.84,345.33,505.29,345.2,505.75,345.24L505.75,345.24z"/>
		<path class="st2" d="M504.19,343.28c0.53,0.37,1.07,1.03,1.56,1.97c1.07,0.04,2.05,0.9,2.91,2.58c0.29-0.04,0.62,0,0.98,0.08
			v-7.75c-0.78-3.08-1.15-5.87-1.11-8.37C505.25,331.92,503.82,335.77,504.19,343.28L504.19,343.28z"/>
		<path class="st2" d="M505.75,345.24c-0.45-0.04-0.9,0.08-1.39,0.37c-1.68,0.78-2.54,3.53-2.63,8.24c-0.21,2.42-0.08,4.22,0.33,5.5
			c0.66,1.89,2.01,2.46,4.06,1.68c-0.49-1.44-0.66-3.77-0.53-7.01c0.04-4.1,1.07-6.15,3.08-6.19
			C507.8,346.15,506.81,345.29,505.75,345.24L505.75,345.24z"/>
		<path class="st3" d="M522.76,345.78c3.2-18.7,2.01-37.24-3.61-55.61l-13.53,7.09l11.61,23.46c-3.12,6.07-4.39,12.3-3.81,18.66
			l-1.93,15.71c0.33-0.08,0.7-0.25,1.11-0.53c2.87-2.71,4.47-7.92,4.76-15.58l1.39,9.92l-6.07,8.28l-4.8-0.86
			c0.9,2.42,4.39,3.77,10.42,4.06l0.78-0.21C521.7,358.16,522.93,353.36,522.76,345.78L522.76,345.78z"/>
		<path class="st2" d="M512.59,354.55c-0.41,0.29-0.78,0.45-1.11,0.53c-1.11,0.29-1.72-0.61-1.85-2.62v-4.55
			c-0.37-0.08-0.7-0.12-0.98-0.08c-2.01,0.04-3.03,2.09-3.08,6.19c-0.12,3.24,0.04,5.58,0.53,7.01c0.62,1.8,1.72,2.26,3.32,1.39
			l8.86-2.05c-6.03-0.29-9.51-1.64-10.42-4.06l4.8,0.86l6.07-8.28l-1.39-9.92C517.06,346.64,515.46,351.85,512.59,354.55
			L512.59,354.55z"/>
		<polygon class="st8" points="457.19,464.99 464.04,462.66 464.2,456.26 457.19,464.99 		"/>
		<polygon class="st2" points="415.36,379.86 418.56,377.64 411.79,367.14 415.36,379.86 		"/>
		<path class="st2" d="M401.58,383.22c1.48,0.78,2.62,1.8,3.44,3.08c0.49,1.97,1.56,3.45,3.24,4.43c0.74,0.29,1.56,0.37,2.42,0.16
			c1.11-0.29,2.3-1.02,3.57-2.13c0.2-0.33,0.41-0.7,0.62-1.07c-3.73,0.41-5.99-0.37-6.69-2.34c-0.08-0.21-0.12-0.41-0.16-0.62
			c-2.09-3.24-5.33-5.62-9.72-7.18l1.6,4.88C400.51,382.65,401.05,382.93,401.58,383.22L401.58,383.22z"/>
		<path class="st8" d="M410.68,390.89c-0.86,0.21-1.68,0.12-2.42-0.16c-1.68-0.98-2.75-2.46-3.24-4.43
			c-5.5,1.6-10.21,1.68-14.15,0.29l-7.67,38.47c-5.29,1.52-6.11,4.63-2.46,9.27l-17.67,41.91c-10.7,21.86-13.9,43.55-9.64,65.04
			l5.41,26.78c3.2,15.46,3.61,30.47,1.23,45.07l5.45,8.41c0.86-0.45,1.68-0.9,2.54-1.27c10.38-4.76,20.92-3.32,31.54,4.26
			c0.33,0.21,0.66,0.45,0.98,0.7l5.29-3.12c-8.73-8-20.05-12.63-34.04-13.94c4.96-6.52,13.98-8.49,27.15-5.91
			c-9.23-7.59-18.95-7.54-29.08,0.08c-0.78,0.57-1.52,1.19-2.3,1.85c0.78-0.66,1.52-1.27,2.3-1.85l1.56-62.54
			c-5.04-34.61,1.72-70.09,20.34-106.38l-1.93-4.06l4.06-2.91l9.47-31.78L410.68,390.89L410.68,390.89z"/>
		<path class="st8" d="M392.15,480.74l11.24-5.25c0.49-2.34,0.98-4.63,1.52-6.97C401.74,472.62,397.48,476.68,392.15,480.74
			L392.15,480.74z"/>
		<path class="st11" d="M360.77,652.57c4.35,8.32,11.24,13.7,20.67,16.2c10.87-3.65,15.63-8.49,14.23-14.48
			c-0.98-10.29,0.12-19.68,3.32-28.17l-27.23,4.55L360.77,652.57c9.31-6.15,18.45-6.15,27.35,0
			C379.23,646.42,370.08,646.42,360.77,652.57L360.77,652.57z"/>
		<path class="st12" d="M381.44,668.77c-9.43-2.5-16.32-7.88-20.67-16.2l10.99-21.9l27.23-4.55c0.21-0.53,0.41-1.07,0.62-1.6
			c-10.62-7.59-21.16-9.02-31.54-4.26l-13.62,30.18c-2.83,11.52,2.71,18.54,16.65,21.04c0.16-0.04,0.33-0.04,0.45-0.08h0.04
			C375.29,670.58,378.57,669.71,381.44,668.77L381.44,668.77z"/>
		<path class="st12" d="M432.34,616.2l0.37,7.59l23.09,4.22l7.79,3.4l12.38,5.37c18.08,5.99,32.19,5.54,42.4-1.39
			c0.12-1.6,0.12-3.08-0.04-4.43c-16.2,2.5-32.89,1.56-49.99-2.91l-29.77-11.11c13.62-2.54,26.04-6.97,37.28-13.33
			c-0.98-0.74-1.93-1.48-2.83-2.21C458.79,603.98,445.21,608.9,432.34,616.2L432.34,616.2z"/>
		<polygon class="st11" points="432.71,623.78 432.99,629.94 455.79,634.16 455.79,628.01 432.71,623.78 		"/>
		<path class="st8" d="M469.86,579.86l-1.6-5.37c-6.19,1.11-12.92,4.47-20.18,10.05L469.86,579.86L469.86,579.86z"/>
		<polygon class="st13" points="455.79,634.16 463.59,631.41 455.79,628.01 455.79,634.16 		"/>
		<path class="st11" d="M502.96,617.14c-10.83-3.65-19.85-8.16-27.11-13.53c-11.24,6.36-23.66,10.79-37.28,13.33l29.77,11.11
			c17.1,4.47,33.79,5.41,49.99,2.91C517.39,623.87,512.27,619.27,502.96,617.14L502.96,617.14z"/>
		<path class="st14" d="M429.47,92.95l1.93-0.21l1.97-0.2V81.71l-2.3-3.49l3.94-7.26l10.01-5.45l6.85,3.94l2.83-0.7l6.32-1.6
			l-5.21,6.56c1.35-0.21,2.67-0.41,3.98-0.66c0.66-0.12,1.31-0.29,1.97-0.41c4.47-1.07,8.61-2.54,12.47-4.43l-4.55,6.03
			c1.56-0.53,3.08-1.11,4.55-1.8c0.21-0.12,0.45-0.21,0.7-0.33c1.93-1.03,3.81-2.17,5.58-3.49c-0.04-2.79-1.07-5.45-3.16-8
			c-1.03-1.23-2.26-2.42-3.77-3.61c-2.26-1.27-4.59-2.38-6.93-3.32c-11.65-4.68-24.11-5.29-37.44-1.89v4.55l-5.7,1.97l-2.71,10.83
			l-2.79,14.15l2.91,5.33l0.78,1.39"/>
		<line class="st14" x1="423.97" y1="95.53" x2="426.76" y2="105.62"/>
		<path class="st15" d="M368.07,620.26l-13.62,30.18c-2.83,11.52,2.71,18.54,16.65,21.04 M432.34,616.2l0.37,7.59 M432.71,623.78
			l0.29,6.15l22.8,4.22 M371.6,671.4c3.69-0.82,6.97-1.68,9.84-2.62c10.87-3.65,15.63-8.49,14.23-14.48
			c-0.98-10.29,0.12-19.68,3.32-28.17c0.21-0.53,0.41-1.07,0.62-1.6 M388.13,652.57c-8.9-6.15-18.04-6.15-27.35,0 M463.59,631.41
			l12.38,5.37c18.08,5.99,32.19,5.54,42.4-1.39c0.12-1.6,0.12-3.08-0.04-4.43c-0.94-7.09-6.07-11.69-15.38-13.82
			c-10.83-3.65-19.85-8.16-27.11-13.53c-0.98-0.74-1.93-1.48-2.83-2.21 M455.79,634.16l7.79-2.75 M463.59,631.41l-7.79-3.4
			 M455.79,628.01v6.15 M432.71,623.78l23.09,4.22"/>
		<path class="st16" d="M464.2,456.26l-7.01,8.73 M450.46,341.64h0.62h0.7 M450.46,341.64l0.62,0.29 M446.73,339.95l3.73,1.68
			 M455.34,340.2l2.21-21.57l0.33-3.53 M468.26,574.49c1.44-0.29,2.83-0.41,4.18-0.45c-5.33-10.46-8.73-23.05-10.21-37.73
			c-0.04-0.29-0.08-0.58-0.08-0.86l1.89-72.79l0.16-6.4 M448.08,584.54c7.26-5.58,13.98-8.94,20.18-10.05 M464.2,456.26l2.83-3.53
			c4.14-22.02,10.25-44.05,18.41-66.07c0.04-0.33,0.12-0.62,0.16-0.9c2.21-11.93,2.75-24.57,1.56-37.89
			c-2.17-12.02-3.49-24.61-3.98-37.77c-0.12-2.42-0.16-4.88-0.21-7.34 M404.9,468.52c5.78-7.55,8-15.17,6.56-22.84l8.04-22.8
			c5.78-11.81,11.07-23.66,15.87-35.55 M390.88,386.58l-7.67,38.47c-5.29,1.52-6.11,4.63-2.46,9.27l-17.67,41.91
			c-10.7,21.86-13.9,43.55-9.64,65.04l5.41,26.78c3.2,15.46,3.61,30.47,1.23,45.07l5.45,8.41c0.86-0.45,1.68-0.9,2.54-1.27
			c10.38-4.76,20.92-3.32,31.54,4.26c0.33,0.21,0.66,0.45,0.98,0.7l5.29-3.12l1.52-0.9l-4.18-12.3l2.26-9.47l-7.18-9.64l4.02-7.71
			l-3.2-15.05c-0.04-0.12-0.04-0.21-0.04-0.29c-3.65-29.28-2.21-59.71,4.31-91.25c0.49-2.34,0.98-4.63,1.52-6.97 M471.21,333.84
			l-15.87,6.36 M455.34,340.2l-3.57,1.44 M435.25,447.73c0.94,0.53,2.13,0.94,3.57,1.31 M371.11,671.48
			c0.16-0.04,0.33-0.04,0.45-0.08h0.04 M451.08,341.92l0.7-0.29 M445.83,314.81l0.16,4.96l0.74,20.18 M435.13,341.64h9.96h5.37
			 M446.73,339.95l-13.2-5.91 M451.08,341.92c-0.33,1.19-0.66,2.34-1.03,3.53c-0.33,1.11-0.66,2.17-0.98,3.28
			c-3.98,12.92-8.53,25.75-13.7,38.59 M435.37,387.32c1.64,17.02,1.89,34,0.78,51.02c-4.14,4.31-4.43,7.42-0.9,9.39 M399,602.25
			c-9.23-7.59-18.95-7.54-29.08,0.08c-0.78,0.57-1.52,1.19-2.3,1.85 M410.23,294.47l-10.33,31.5c1.31,8.74,1.03,17.06-0.86,24.98
			 M392.15,480.74c5.33-4.06,9.6-8.12,12.75-12.22 M435.25,447.73l-13.12,28.79c-7.18,15.95-7.18,32.64,0,49.99
			c6.11,25.79,7.46,52.74,4.06,80.83l3.85,10.17c0.78-0.45,1.52-0.86,2.3-1.31c12.88-7.3,26.45-12.22,40.68-14.8
			c1.03-0.21,2.09-0.37,3.12-0.53l-0.21-0.74l-6.07-20.26l-1.6-5.37 M467.03,339.83l-15.21,2.01l-0.74,0.08"/>
		<path class="st17" d="M420.4,120.71l-4.06,2.5c0.9,1.85,1.89,3.65,2.95,5.37c0.86,1.44,1.8,2.83,2.79,4.18
			c8.16,11.36,19.44,19.03,33.83,23.05c4.1-5.33,6.89-11.57,8.37-18.7c-1.35-1.11-2.67-2.26-3.98-3.44 M424.26,120.18l-3.85,0.53
			 M386.36,281.64l-22.39,4.96 M386.53,295.01l1.27-3.2 M387.8,291.81l4.1-10.38l-4.96-4.59l-0.29,2.38l-0.29,2.42 M408.35,215.49
			c-2.71-0.74-5.41-1.56-8.12-2.46l-5.09,22.97l2.5,6.48c5.78,5.87,9.47,12.18,11.11,18.95c4.39,0.94,8.82,1.76,13.21,2.38
			 M388.25,281.23l-1.89,0.41 M363.97,286.6c-5.37-0.94-11.03-2.75-16.98-5.5 M408.35,215.49c29.32,8.08,57.99,7.63,86.04-1.44
			c-1.39,4.47-3.08,8.98-5,13.49c-1.72,11.36-2.75,22.56-3.04,33.63c-21.37,4.8-42.77,5.7-64.14,2.67
			c-0.08-0.04-0.16-0.04-0.25-0.04 M421.96,263.8l-10.62-26.74l-2.99-21.57 M515.83,267.69l-2.38,1.6l-0.12,0.04l-8.65,5.74
			 M508.66,274.87c-1.35,0.12-2.66,0.16-3.98,0.21 M345.81,285.66l-1.72,12.79c2.17,1.72,4.39,3.2,6.64,4.47
			c4.47,2.58,9.1,4.22,13.82,5c6.36-0.62,12.55-2.42,18.66-5.41c2.05-1.03,4.1-2.17,6.11-3.45l-0.16-0.82l-1.35-6.44 M487.45,292.05
			c1.15,0.41,2.34,0.78,3.53,1.11c3.94,1.03,7.96,1.44,12.1,1.27c5.13-1.6,10.21-3.81,15.34-6.56c1.11-0.62,2.26-1.23,3.36-1.89
			l-0.66-1.6l-2.83-6.89V267l-5.7-1.44l0.25,1.31 M504.68,275.08c-4.72,0.04-9.35-0.53-13.82-1.8c-1.52-0.45-3.04-0.94-4.55-1.56
			 M347,281.1c-0.82-0.37-1.64-0.78-2.46-1.19 M367.13,287.01c-1.03-0.12-2.09-0.25-3.16-0.41 M377.92,296.28
			c-6.36,1.39-12.96,0.94-19.77-1.35l-0.33-0.33 M459.77,133.67v3.44l-2.34,5.86l-2.58,6.44c-10.58-4.51-19.81-11.2-27.68-20.05
			c-1.27-1.44-2.54-2.95-3.73-4.51c-1.02-1.35-2.05-2.71-3.03-4.14 M347.32,288.73l-1.52-3.08 M345.81,285.66l-3.44-7.05l6.11-3.65
			L347,281.1"/>
		<path class="st18" d="M408.76,261.42c2.13,8.78,0.78,18.33-4.1,28.63l5.58,4.43l17.06,13.53c5.95,3.86,12.14,6.11,18.54,6.81
			c11.65,1.23,24.03-2.79,37.16-12.06c1.72-1.23,3.44-2.54,5.21-3.94c-0.29-2.25-0.53-4.51-0.74-6.77
			c-0.7-6.73-1.07-13.49-1.15-20.34c-0.04-3.49-0.04-7.01,0.04-10.54 M352.57,257.89l0.12-0.62 M359.67,209.62l-0.08,0.7
			l-7.75,42.45c-2.26,1.68-2.26,3.32,0,4.96l0.74,0.16 M359.87,202.08l3.28-2.79l8.74-7.46 M512.59,265.56l-2.75-13.41
			 M494.38,214.05c4.63-15.17,6.19-30.35,4.63-45.48 M359.87,202.08l-2.42,2.01l-0.86,5.21c1.03,0.12,2.05,0.25,3.08,0.33
			 M388.87,259.9c1.27-0.66,2.26-1.31,2.95-1.97c0.7-0.62,1.11-1.27,1.27-1.93c0.29-1.15-0.25-2.3-1.6-3.44 M388.05,260.31
			c0.29-0.12,0.53-0.29,0.82-0.41 M388.83,260.39l-0.78-0.08 M388.83,260.39l0.04-0.49 M386.94,276.84l1.39-12.26l0.49-4.18
			 M366.68,269.66l0.41-0.12c4.55-3.44,9.51-6.03,14.93-7.71c1.23-0.41,2.5-0.74,3.77-1.03c0.74-0.21,1.48-0.37,2.26-0.49
			 M391.49,252.56l0.82-3.61l2.83-12.96 M512.84,266.87l0.41,2.09l0.08,0.37 M382.63,205.85c-0.16,0.04-0.33,0.12-0.45,0.2
			c-7.01,2.83-14.23,4.06-21.61,3.65c-0.29-0.04-0.62-0.04-0.9-0.08 M400.23,213.03l5.04-22.92 M416.34,123.22l-50.57,30.88
			l-5.9,47.98 M509.85,252.15c1.93-1.76,1.93-3.57-0.04-5.33c-4.67-15.91-6.56-32.07-5.66-48.47c0-0.37,0-0.78,0.04-1.15
			c2.3-13.41,0.57-25.8-5.17-37.24c-12.34-6.11-23.91-13.74-34.73-22.84 M494.63,258.51c6.07-1.64,10.5-3.28,13.25-4.92
			 M509.44,252.52c0.12-0.12,0.29-0.25,0.41-0.37 M493.44,238.09c1.07,1.27,2.13,2.42,3.2,3.44c3.53,3.4,7.05,5.66,10.54,6.77
			 M352.57,257.89l-4.1,17.06 M391.49,252.56c-8.49,0.61-16.03-1.44-22.64-6.23"/>
		<path class="st19" d="M505.75,345.24c1.07,0.04,2.05,0.9,2.91,2.58"/>
		<path class="st19" d="M459.77,126.17h5.74c0.29-0.7,0.53-1.35,0.78-2.01c5.86-15.13,8.24-25.88,7.22-32.27
			c-1.27-5-0.82-10.13,1.27-15.42c0.04-0.16,0.12-0.33,0.21-0.49l-0.78-3.53"/>
		<line class="st19" x1="459.77" y1="133.67" x2="459.77" y2="126.17"/>
		<path class="st19" d="M433.08,98.4v13.9c6.93,5.91,13.82,10.54,20.71,13.86h5.99"/>
		<path class="st19" d="M423.44,124.86l0.82-4.68l2.5-14.56l1.23-7.22c-1.68-0.74-2.99-1.68-4.02-2.87c-1.27-1.48-2.01-3.32-2.3-5.5
			c-0.08-0.53-0.12-1.11-0.12-1.72c-0.04-1.44,0.12-2.95,0.45-4.59c0.7-1.85,1.48-2.71,2.3-2.62c1.56,0.12,3.28,4.1,5.17,11.85"/>
		<path class="st19" d="M423.31,86.51c2.38,0.53,3.36,1.97,2.95,4.31c-0.62,2.01,0.33,3.44,2.79,4.39"/>
		<path class="st19" d="M415.36,379.86l3.2-2.21l2.01-1.44l-7.96-23.05c-4.96,0.08-9.51-0.66-13.57-2.21
			c-2.62-1.03-5.08-2.34-7.34-4.02c-5.45-12.63-8.28-26.45-8.49-41.42c-0.04-0.98-0.04-1.97,0-2.99"/>
		<path class="st19" d="M504.19,343.28c0.53,0.37,1.07,1.03,1.56,1.97"/>
		<path class="st19" d="M505.75,345.24c-0.45-0.04-0.9,0.08-1.39,0.37c-1.68,0.78-2.54,3.53-2.63,8.24
			c-0.21,2.42-0.08,4.22,0.33,5.5"/>
		<path class="st19" d="M509.64,347.91v-7.75c-0.78-3.08-1.15-5.87-1.11-8.37"/>
		<path class="st19" d="M490.98,293.16l20.75,29.32c-2.01,2.5-3.08,5.58-3.2,9.31"/>
		<path class="st19" d="M508.53,331.79c-3.28,0.12-4.72,3.98-4.35,11.48"/>
		<path class="st19" d="M504.19,343.28c-1.44-1.11-2.95-0.45-4.55,2.01v12.43l2.42,1.64"/>
		<path class="st19" d="M506.11,361.03c0.62,1.8,1.72,2.26,3.32,1.39l8.86-2.05l0.78-0.21c2.63-2.01,3.86-6.81,3.69-14.39
			c3.2-18.7,2.01-37.24-3.61-55.61c-0.25-0.78-0.49-1.52-0.74-2.3"/>
		<path class="st19" d="M517.35,338.97c-0.29,7.67-1.89,12.88-4.76,15.58c-0.41,0.29-0.78,0.45-1.11,0.53
			c-1.11,0.29-1.72-0.61-1.85-2.62v-4.55"/>
		<path class="st19" d="M508.66,347.83c0.29-0.04,0.62,0,0.98,0.08"/>
		<path class="st19" d="M502.05,359.35c0.66,1.89,2.01,2.46,4.06,1.68"/>
		<path class="st19" d="M506.11,361.03c-0.49-1.44-0.66-3.77-0.53-7.01c0.04-4.1,1.07-6.15,3.08-6.19"/>
		<path class="st19" d="M405.02,386.29c0.49,1.97,1.56,3.45,3.24,4.43c0.74,0.29,1.56,0.37,2.42,0.16c1.11-0.29,2.3-1.02,3.57-2.13
			c0.2-0.33,0.41-0.7,0.62-1.07c0.86-1.84,1.11-4.18,0.74-6.97l-0.25-0.86"/>
		<path class="st19" d="M350.73,302.92c3.16,16.61,11.03,33.42,23.54,50.44c-2.09,8.61-2.54,17.1-1.31,25.42
			c1.23,3.45,4.1,4.88,8.61,4.31c2.26,2.46,5.13,3.53,8.61,3.2c0.2,0.12,0.45,0.21,0.7,0.29c3.94,1.4,8.65,1.31,14.15-0.29"/>
		<path class="st19" d="M399.9,382.44c0.62,0.21,1.15,0.49,1.68,0.78c1.48,0.78,2.62,1.8,3.44,3.08"/>
		<line class="st19" x1="411.79" y1="367.14" x2="415.36" y2="379.86"/>
		<path d="M448.5,82.58c0-0.12,0-0.21,0-0.29c0.7,0.12,1.39,0.25,2.13,0.41l1.31-0.98l-6.93-0.66l-0.12-0.04
			c-0.37-0.04-0.74-0.08-1.11-0.04c-2.09,0.04-3.69,1.02-4.8,3.03c1.07-1.03,2.5-1.64,4.31-1.89c-0.04,0.12-0.04,0.29-0.04,0.45
			c0,0.74,0.25,1.35,0.74,1.85c0.53,0.53,1.15,0.78,1.89,0.78c0.74,0,1.35-0.25,1.85-0.78C448.25,83.93,448.5,83.31,448.5,82.58
			L448.5,82.58z"/>
		<polygon class="st20" points="458.67,114.28 460.76,112.59 455.22,112.59 456.45,114.28 458.67,114.28 		"/>
		<path d="M436.32,77.12l2.67,0.33c3.85-1.48,8.45-1.35,13.74,0.37C446.77,72.94,441.28,72.69,436.32,77.12L436.32,77.12z"/>
		<path class="st20" d="M454.4,110.54c0.04,0,0.04,0,0.08,0l10.33-0.16l1.68-1.44h-11.07c-3.61,0.25-6.36-0.74-8.24-2.99
			c0.21,2.79,2.54,4.31,6.97,4.59C454.24,110.54,454.32,110.54,454.4,110.54L454.4,110.54z"/>
		<path d="M465.27,77.94c3.86-0.94,7.42-0.86,10.75,0.25c-3.24-3.81-6.56-4.39-9.97-1.8L465.27,77.94L465.27,77.94z"/>
		<path class="st20" d="M465.27,77.94l0.78-1.56l-4.76,6.56l2.67,15.87c-0.94,1.6-2.5,2.5-4.59,2.71c-2.91-0.04-5.29-1.03-7.05-2.91
			c0.94,2.5,3.28,4.1,6.97,4.8c3.24-0.82,5.29-2.26,6.15-4.35l-2.83-16.03L465.27,77.94L465.27,77.94z"/>
		<path d="M468.51,81.59c-0.53,0-1.07,0.04-1.56,0.12c-0.21,0.04-0.41,0.08-0.61,0.12c-0.08,0.04-0.17,0.04-0.21,0.08
			c-0.94,0.25-1.85,0.66-2.71,1.27c0.7-0.21,1.39-0.37,2.09-0.49c0.08-0.04,0.17-0.04,0.25-0.04c0,0.04,0,0.12-0.04,0.16
			c-0.04,0.21-0.08,0.41-0.08,0.61c0,0.53,0.2,1.03,0.57,1.39c0.37,0.41,0.86,0.62,1.43,0.62c0.53,0,0.98-0.21,1.35-0.62
			c0.45-0.37,0.66-0.86,0.66-1.39c0-0.29-0.04-0.53-0.16-0.74c0.7,0.08,1.35,0.25,2.05,0.49l0.61-0.94
			C470.89,81.8,469.66,81.59,468.51,81.59L468.51,81.59z"/>
		<path class="st21" d="M443.66,82c0,0.04,0,0.08,0,0.12c0,0.37,0.12,0.7,0.41,0.98c0.29,0.29,0.62,0.45,1.03,0.45
			c0.37,0,0.7-0.16,0.98-0.45c0.29-0.29,0.45-0.61,0.45-0.98C445.5,82,444.52,81.96,443.66,82L443.66,82z"/>
		<path class="st21" d="M466.01,82.7c-0.04,0.12-0.08,0.21-0.08,0.33c0,0.29,0.08,0.49,0.29,0.7c0.21,0.21,0.45,0.33,0.74,0.33
			c0.25,0,0.49-0.12,0.7-0.33c0.21-0.21,0.29-0.41,0.29-0.7c0-0.12,0-0.25-0.04-0.37c-0.12-0.04-0.21-0.04-0.33-0.04
			c-0.53,0-1.03,0-1.56,0.04V82.7L466.01,82.7z"/>
	</g>
</g>
</svg>
